<mxfile host="Electron" agent="Mozilla/5.0 (Windows NT 10.0; Win64; x64) AppleWebKit/537.36 (KHTML, like Gecko) draw.io/24.7.8 Chrome/128.0.6613.36 Electron/32.0.1 Safari/537.36" version="24.7.8">
  <diagram name="Pagina-1" id="f8DElW83291utPv9S6O0">
    <mxGraphModel dx="3348" dy="1672" grid="1" gridSize="10" guides="1" tooltips="1" connect="1" arrows="1" fold="1" page="1" pageScale="1" pageWidth="827" pageHeight="1169" math="0" shadow="0">
      <root>
        <mxCell id="0" />
        <mxCell id="1" parent="0" />
        <mxCell id="PLUFHSTD39UYiwxeZ5gk-1" value="" style="strokeWidth=1;shadow=0;dashed=0;align=center;html=1;shape=mxgraph.mockup.containers.browserWindow;rSize=0;strokeColor=#666666;strokeColor2=#008cff;strokeColor3=#c4c4c4;mainText=,;recursiveResize=0;" parent="1" vertex="1">
          <mxGeometry x="54" width="1160" height="810" as="geometry" />
        </mxCell>
        <mxCell id="PLUFHSTD39UYiwxeZ5gk-2" value="Page 1" style="strokeWidth=1;shadow=0;dashed=0;align=center;html=1;shape=mxgraph.mockup.containers.anchor;fontSize=17;fontColor=#666666;align=left;whiteSpace=wrap;" parent="PLUFHSTD39UYiwxeZ5gk-1" vertex="1">
          <mxGeometry x="60" y="12" width="110" height="26" as="geometry" />
        </mxCell>
        <mxCell id="PLUFHSTD39UYiwxeZ5gk-3" value="https://www.mypersonaldriver/documents.it" style="strokeWidth=1;shadow=0;dashed=0;align=center;html=1;shape=mxgraph.mockup.containers.anchor;rSize=0;fontSize=17;fontColor=#666666;align=left;" parent="PLUFHSTD39UYiwxeZ5gk-1" vertex="1">
          <mxGeometry x="130" y="60" width="250" height="26" as="geometry" />
        </mxCell>
        <mxCell id="PLUFHSTD39UYiwxeZ5gk-37" value="" style="shape=actor;whiteSpace=wrap;html=1;" parent="PLUFHSTD39UYiwxeZ5gk-1" vertex="1">
          <mxGeometry x="1010" y="130" width="40" height="50" as="geometry" />
        </mxCell>
        <mxCell id="PLUFHSTD39UYiwxeZ5gk-41" value="dopo il login&amp;nbsp;" style="text;html=1;align=center;verticalAlign=middle;resizable=0;points=[];autosize=1;strokeColor=none;fillColor=none;" parent="PLUFHSTD39UYiwxeZ5gk-1" vertex="1">
          <mxGeometry x="1070" y="120" width="90" height="30" as="geometry" />
        </mxCell>
        <mxCell id="PLUFHSTD39UYiwxeZ5gk-55" value="" style="line;strokeWidth=4;html=1;perimeter=backbonePerimeter;points=[];outlineConnect=0;" parent="PLUFHSTD39UYiwxeZ5gk-1" vertex="1">
          <mxGeometry y="190" width="1160" height="10" as="geometry" />
        </mxCell>
        <mxCell id="PLUFHSTD39UYiwxeZ5gk-58" value="" style="shape=mxgraph.signs.transportation.car_4;html=1;pointerEvents=1;fillColor=#000000;strokeColor=none;verticalLabelPosition=bottom;verticalAlign=top;align=center;" parent="PLUFHSTD39UYiwxeZ5gk-1" vertex="1">
          <mxGeometry x="10" y="120" width="70" height="60" as="geometry" />
        </mxCell>
        <mxCell id="PLUFHSTD39UYiwxeZ5gk-60" value="" style="line;strokeWidth=4;html=1;perimeter=backbonePerimeter;points=[];outlineConnect=0;" parent="PLUFHSTD39UYiwxeZ5gk-1" vertex="1">
          <mxGeometry y="660" width="1160" height="10" as="geometry" />
        </mxCell>
        <mxCell id="PLUFHSTD39UYiwxeZ5gk-61" value="About us" style="strokeWidth=1;shadow=0;dashed=0;align=center;html=1;shape=mxgraph.mockup.buttons.button;strokeColor=#666666;fontColor=#ffffff;mainText=;buttonStyle=round;fontSize=17;fontStyle=1;fillColor=#008cff;whiteSpace=wrap;" parent="PLUFHSTD39UYiwxeZ5gk-1" vertex="1">
          <mxGeometry x="486" y="680" width="150" height="50" as="geometry" />
        </mxCell>
        <mxCell id="DM04UP5AWY4TQnvCsg2A-1" value="" style="swimlane;shape=mxgraph.bootstrap.anchor;strokeColor=#666666;fillColor=#ffffff;fontColor=#666666;fontStyle=0;childLayout=stackLayout;horizontal=1;startSize=0;horizontalStack=0;resizeParent=1;resizeParentMax=0;resizeLast=0;collapsible=0;marginBottom=0;whiteSpace=wrap;html=1;" vertex="1" parent="PLUFHSTD39UYiwxeZ5gk-1">
          <mxGeometry x="390" y="320" width="340" height="150" as="geometry" />
        </mxCell>
        <mxCell id="DM04UP5AWY4TQnvCsg2A-3" value="Validate Documents" style="text;strokeColor=inherit;align=center;verticalAlign=middle;spacingLeft=10;spacingRight=10;overflow=hidden;points=[[0,0.5],[1,0.5]];portConstraint=eastwest;rotatable=0;whiteSpace=wrap;html=1;rSize=5;fillColor=inherit;fontColor=inherit;fontSize=17;fontStyle=1;" vertex="1" parent="DM04UP5AWY4TQnvCsg2A-1">
          <mxGeometry width="340" height="50" as="geometry" />
        </mxCell>
        <mxCell id="DM04UP5AWY4TQnvCsg2A-4" value="Manage reports" style="text;strokeColor=inherit;align=center;verticalAlign=middle;spacingLeft=10;spacingRight=10;overflow=hidden;points=[[0,0.5],[1,0.5]];portConstraint=eastwest;rotatable=0;whiteSpace=wrap;html=1;rSize=5;fillColor=inherit;fontColor=inherit;fontSize=17;fontStyle=1;" vertex="1" parent="DM04UP5AWY4TQnvCsg2A-1">
          <mxGeometry y="50" width="340" height="50" as="geometry" />
        </mxCell>
        <mxCell id="DM04UP5AWY4TQnvCsg2A-5" value="Users" style="text;strokeColor=inherit;align=center;verticalAlign=middle;spacingLeft=10;spacingRight=10;overflow=hidden;points=[[0,0.5],[1,0.5]];portConstraint=eastwest;rotatable=0;whiteSpace=wrap;html=1;shape=mxgraph.mockup.bottomButton;rSize=10;fillColor=inherit;fontColor=inherit;fontSize=17;fontStyle=1;" vertex="1" parent="DM04UP5AWY4TQnvCsg2A-1">
          <mxGeometry y="100" width="340" height="50" as="geometry" />
        </mxCell>
        <mxCell id="PLUFHSTD39UYiwxeZ5gk-38" value="" style="verticalLabelPosition=bottom;shadow=0;dashed=0;align=center;html=1;verticalAlign=top;strokeWidth=1;shape=mxgraph.mockup.containers.userMale;strokeColor=#666666;strokeColor2=#008cff;" parent="1" vertex="1">
          <mxGeometry x="1280" y="95" width="100" height="100" as="geometry" />
        </mxCell>
        <mxCell id="PLUFHSTD39UYiwxeZ5gk-39" value="" style="shape=waypoint;sketch=0;size=6;pointerEvents=1;points=[];fillColor=default;resizable=0;rotatable=0;perimeter=centerPerimeter;snapToPoint=1;" parent="1" vertex="1">
          <mxGeometry x="1270" y="135" width="20" height="20" as="geometry" />
        </mxCell>
        <mxCell id="PLUFHSTD39UYiwxeZ5gk-40" value="" style="edgeStyle=orthogonalEdgeStyle;rounded=0;orthogonalLoop=1;jettySize=auto;html=1;" parent="1" source="PLUFHSTD39UYiwxeZ5gk-37" target="PLUFHSTD39UYiwxeZ5gk-39" edge="1">
          <mxGeometry relative="1" as="geometry" />
        </mxCell>
        <mxCell id="PLUFHSTD39UYiwxeZ5gk-106" value="Title" style="swimlane;strokeColor=#999999;swimlaneFillColor=#FFFFFF;fillColor=#ffffff;fontColor=#008CFF;fontStyle=0;childLayout=stackLayout;horizontal=1;startSize=30;horizontalStack=0;resizeParent=1;resizeParentMax=0;resizeLast=0;collapsible=0;marginBottom=0;whiteSpace=wrap;html=1;fontSize=17;" parent="1" vertex="1">
          <mxGeometry x="1260" y="210" width="150" height="230" as="geometry" />
        </mxCell>
        <mxCell id="PLUFHSTD39UYiwxeZ5gk-54" value="dropdown" style="strokeWidth=1;shadow=0;dashed=0;align=center;html=1;shape=mxgraph.mockup.forms.comboBox;strokeColor=#999999;fillColor=#ddeeff;align=left;fillColor2=#aaddff;mainText=;fontColor=#666666;fontSize=17;spacingLeft=3;" parent="PLUFHSTD39UYiwxeZ5gk-106" vertex="1">
          <mxGeometry y="30" width="150" height="30" as="geometry" />
        </mxCell>
        <mxCell id="PLUFHSTD39UYiwxeZ5gk-107" value="Visualizza profilo" style="text;spacing=0;strokeColor=none;align=left;verticalAlign=middle;spacingLeft=7;spacingRight=10;overflow=hidden;points=[[0,0.5],[1,0.5]];portConstraint=eastwest;rotatable=0;whiteSpace=wrap;html=1;fillColor=none;fontColor=#666666;fontSize=17;" parent="PLUFHSTD39UYiwxeZ5gk-106" vertex="1">
          <mxGeometry y="60" width="150" height="20" as="geometry" />
        </mxCell>
        <mxCell id="PLUFHSTD39UYiwxeZ5gk-108" value="Modifica profilo" style="text;spacing=0;strokeColor=none;align=left;verticalAlign=middle;spacingLeft=7;spacingRight=10;overflow=hidden;points=[[0,0.5],[1,0.5]];portConstraint=eastwest;rotatable=0;whiteSpace=wrap;html=1;rSize=5;fillColor=none;fontColor=#666666;fontSize=17;" parent="PLUFHSTD39UYiwxeZ5gk-106" vertex="1">
          <mxGeometry y="80" width="150" height="20" as="geometry" />
        </mxCell>
        <mxCell id="PLUFHSTD39UYiwxeZ5gk-109" value="" style="text;spacing=0;strokeColor=none;align=left;verticalAlign=middle;spacingLeft=7;spacingRight=10;overflow=hidden;points=[[0,0.5],[1,0.5]];portConstraint=eastwest;rotatable=0;whiteSpace=wrap;html=1;rSize=5;fillColor=#DDEEFF;fontColor=#666666;fontSize=17;" parent="PLUFHSTD39UYiwxeZ5gk-106" vertex="1">
          <mxGeometry y="100" width="150" height="20" as="geometry" />
        </mxCell>
        <mxCell id="PLUFHSTD39UYiwxeZ5gk-110" value="LOGOUT" style="text;spacing=0;strokeColor=none;align=left;verticalAlign=middle;spacingLeft=7;spacingRight=10;overflow=hidden;points=[[0,0.5],[1,0.5]];portConstraint=eastwest;rotatable=0;whiteSpace=wrap;html=1;fillColor=none;fontColor=#666666;fontSize=17;" parent="PLUFHSTD39UYiwxeZ5gk-106" vertex="1">
          <mxGeometry y="120" width="150" height="20" as="geometry" />
        </mxCell>
        <mxCell id="PLUFHSTD39UYiwxeZ5gk-111" value="" style="text;spacing=0;strokeColor=none;align=left;verticalAlign=middle;spacingLeft=7;spacingRight=10;overflow=hidden;points=[[0,0.5],[1,0.5]];portConstraint=eastwest;rotatable=0;whiteSpace=wrap;html=1;fillColor=none;fontColor=#666666;fontSize=17;" parent="PLUFHSTD39UYiwxeZ5gk-106" vertex="1">
          <mxGeometry y="140" width="150" height="90" as="geometry" />
        </mxCell>
        <mxCell id="DM04UP5AWY4TQnvCsg2A-6" value="Validate Documents" style="text;strokeColor=inherit;align=center;verticalAlign=middle;spacingLeft=10;spacingRight=10;overflow=hidden;points=[[0,0.5],[1,0.5]];portConstraint=eastwest;rotatable=0;whiteSpace=wrap;html=1;rSize=5;fillColor=inherit;fontColor=inherit;fontSize=17;fontStyle=1;" vertex="1" parent="1">
          <mxGeometry x="1250" y="490" width="340" height="50" as="geometry" />
        </mxCell>
        <mxCell id="DM04UP5AWY4TQnvCsg2A-7" value="&lt;font style=&quot;font-size: 14px;&quot;&gt;On click takes you to documents page&lt;br&gt;Calls : GET /documents&lt;/font&gt;" style="text;html=1;align=center;verticalAlign=middle;whiteSpace=wrap;rounded=0;" vertex="1" parent="1">
          <mxGeometry x="1250" y="554" width="350" height="60" as="geometry" />
        </mxCell>
        <mxCell id="DM04UP5AWY4TQnvCsg2A-8" value="Manage reports" style="text;strokeColor=inherit;align=center;verticalAlign=middle;spacingLeft=10;spacingRight=10;overflow=hidden;points=[[0,0.5],[1,0.5]];portConstraint=eastwest;rotatable=0;whiteSpace=wrap;html=1;rSize=5;fillColor=inherit;fontColor=inherit;fontSize=17;fontStyle=1;" vertex="1" parent="1">
          <mxGeometry x="1250" y="650" width="340" height="50" as="geometry" />
        </mxCell>
        <mxCell id="DM04UP5AWY4TQnvCsg2A-9" value="&lt;font style=&quot;font-size: 14px;&quot;&gt;On click takes you to reports page&lt;br&gt;&lt;/font&gt;" style="text;html=1;align=center;verticalAlign=middle;whiteSpace=wrap;rounded=0;" vertex="1" parent="1">
          <mxGeometry x="1245" y="730" width="350" height="60" as="geometry" />
        </mxCell>
        <mxCell id="DM04UP5AWY4TQnvCsg2A-10" value="Users" style="text;strokeColor=inherit;align=center;verticalAlign=middle;spacingLeft=10;spacingRight=10;overflow=hidden;points=[[0,0.5],[1,0.5]];portConstraint=eastwest;rotatable=0;whiteSpace=wrap;html=1;shape=mxgraph.mockup.bottomButton;rSize=10;fillColor=inherit;fontColor=inherit;fontSize=17;fontStyle=1;" vertex="1" parent="1">
          <mxGeometry x="1245" y="800" width="340" height="50" as="geometry" />
        </mxCell>
        <mxCell id="DM04UP5AWY4TQnvCsg2A-11" value="Text" style="text;html=1;align=center;verticalAlign=middle;whiteSpace=wrap;rounded=0;" vertex="1" parent="1">
          <mxGeometry x="820" y="670" width="60" height="30" as="geometry" />
        </mxCell>
        <mxCell id="DM04UP5AWY4TQnvCsg2A-12" value="&lt;font style=&quot;font-size: 14px;&quot;&gt;On click takes you to users page&lt;/font&gt;" style="text;html=1;align=center;verticalAlign=middle;whiteSpace=wrap;rounded=0;" vertex="1" parent="1">
          <mxGeometry x="1280" y="880" width="290" height="50" as="geometry" />
        </mxCell>
      </root>
    </mxGraphModel>
  </diagram>
</mxfile>
